<?xml version="1.0" encoding="UTF-8" standalone="no"?>
<!-- Created with Inkscape (http://www.inkscape.org/) -->

<svg
   version="1.1"
   id="svg323"
   width="1600"
   height="1600"
   viewBox="0 0 1600 1600"
   sodipodi:docname="handshake-clip-art-pdv.svg"
   inkscape:version="1.2 (dc2aedaf03, 2022-05-15)"
   xmlns:inkscape="http://www.inkscape.org/namespaces/inkscape"
   xmlns:sodipodi="http://sodipodi.sourceforge.net/DTD/sodipodi-0.dtd"
   xmlns="http://www.w3.org/2000/svg"
   xmlns:svg="http://www.w3.org/2000/svg">
  <defs
     id="defs327">
    <clipPath
       clipPathUnits="userSpaceOnUse"
       id="clipPath339">
      <path
         d="M 0,1200 H 1200 V 0 H 0 Z"
         id="path337" />
    </clipPath>
  </defs>
  <sodipodi:namedview
     id="namedview325"
     pagecolor="#ffffff"
     bordercolor="#000000"
     borderopacity="0.25"
     inkscape:showpageshadow="2"
     inkscape:pageopacity="0.0"
     inkscape:pagecheckerboard="0"
     inkscape:deskcolor="#d1d1d1"
     showgrid="false"
     inkscape:zoom="0.523125"
     inkscape:cx="800"
     inkscape:cy="800.95579"
     inkscape:window-width="1920"
     inkscape:window-height="1017"
     inkscape:window-x="-8"
     inkscape:window-y="-8"
     inkscape:window-maximized="1"
     inkscape:current-layer="g331">
    <inkscape:page
       x="0"
       y="0"
       id="page329"
       width="1600"
       height="1600" />
  </sodipodi:namedview>
  <g
     id="g331"
     inkscape:groupmode="layer"
     inkscape:label="Page 1"
     transform="matrix(1.3333333,0,0,-1.3333333,0,1600)">
    <g
       id="g333">
      <g
         id="g335"
         clip-path="url(#clipPath339)">
        <g
           id="g341"
           transform="translate(222.3926,706.334)">
          <path
             d="m 0,0 c 0.193,-1.15 -0.07,-2.305 -0.747,-3.254 -0.673,-0.949 -1.678,-1.58 -2.828,-1.773 -1.147,-0.196 -2.301,0.072 -3.252,0.745 -0.949,0.677 -1.581,1.682 -1.774,2.828 -0.195,1.15 0.071,2.306 0.747,3.257 0.85,1.191 2.194,1.831 3.56,1.831 0.876,0 1.757,-0.264 2.524,-0.806 C -0.822,2.151 -0.192,1.148 0,0 m 44.61,-35.513 5.163,-3.425 -0.149,-0.208 c -0.237,-0.336 -0.507,-0.707 -0.783,-1.075 l -4.967,3.697 c 0.249,0.336 0.491,0.672 0.736,1.011 m -6.736,-16.135 -3.895,4.816 c 0.324,0.259 0.647,0.525 0.967,0.793 l 3.995,-4.729 c -0.352,-0.297 -0.706,-0.589 -1.067,-0.88 m -13.478,-8.328 -2.566,5.634 c 0.378,0.175 0.756,0.35 1.132,0.532 l 2.684,-5.582 c -0.415,-0.199 -0.832,-0.394 -1.25,-0.584 m -6.533,48.359 C 13.166,-10.186 8.299,-9.228 3.834,-7.154 3.231,-6.88 2.638,-6.587 2.04,-6.301 2.247,-6.596 2.472,-6.874 2.675,-7.171 L 2.363,-7.503 c -1.254,0.758 -2.479,1.547 -3.674,2.367 -0.626,-0.425 -1.333,-0.724 -2.098,-0.853 -0.304,-0.054 -0.603,-0.079 -0.902,-0.079 -1.1,0 -2.169,0.34 -3.085,0.989 -0.387,0.278 -0.711,0.61 -1.005,0.968 -1.313,-0.79 -2.629,-1.575 -3.947,-2.358 -5.21,-3.05 -10.619,-5.744 -15.964,-8.553 -10.672,-5.658 -21.374,-11.26 -32.105,-16.804 l -0.11,0.197 c 10.414,6.124 20.855,12.192 31.33,18.205 5.229,3.025 10.391,6.166 15.749,8.951 1.367,0.694 2.729,1.389 4.095,2.08 -0.083,0.254 -0.166,0.507 -0.211,0.778 -0.15,0.88 -0.05,1.756 0.224,2.579 -0.805,0.662 -1.612,1.324 -2.409,1.997 -4.465,3.742 -8.29,8.161 -12.39,12.292 l -12.235,12.458 -11.774,12.302 -0.27,0.253 c 0.004,0.005 0.012,0.008 0.017,0.016 l -0.051,0.05 0.312,0.335 0.054,-0.048 c 0.203,0.22 0.409,0.441 0.616,0.658 l 4.463,-4.296 c -0.116,-0.121 -0.23,-0.246 -0.348,-0.37 l 8.544,-7.239 13.175,-11.461 c 4.369,-3.844 9.01,-7.399 13.014,-11.625 0.694,-0.729 1.379,-1.464 2.064,-2.203 1.687,0.789 3.73,0.695 5.354,-0.457 0.557,-0.395 1.018,-0.889 1.379,-1.45 0.907,0.409 1.815,0.818 2.732,1.205 L 3.018,3.184 C 2.197,2.608 1.362,2.056 0.53,1.504 0.726,1.078 0.885,0.636 0.966,0.162 1.001,-0.042 0.995,-0.245 1.01,-0.446 2.63,-0.808 4.241,-1.2 5.834,-1.637 c 4.757,-1.268 9.105,-3.656 13.629,-5.569 4.531,-1.902 9.041,-3.848 13.535,-5.844 4.476,-2.043 8.979,-4.004 13.43,-6.117 l -0.202,-0.553 c -4.768,1.232 -9.486,2.615 -14.229,3.912 -0.649,0.188 -1.296,0.391 -1.943,0.578 l 14.879,-10.582 -7.267,-10.213 -20.716,14.731 5.842,8.215 c -1.644,0.492 -3.292,0.958 -4.929,1.462 m -8.578,-53.064 -1.102,6.091 1.231,0.237 1.219,-6.073 c -0.449,-0.091 -0.9,-0.177 -1.348,-0.255 m -14.443,-0.912 c -0.457,0.026 -0.918,0.052 -1.377,0.087 l 0.451,6.174 c 0.415,-0.028 0.83,-0.056 1.246,-0.076 z m -15.591,2.797 c -0.435,0.136 -0.868,0.28 -1.303,0.424 l 1.963,5.873 1.196,-0.387 z m -14.396,6.606 c -0.386,0.241 -0.772,0.484 -1.159,0.735 l 3.377,5.192 c 0.349,-0.224 0.698,-0.449 1.051,-0.669 z m -12.31,9.95 c -0.317,0.334 -0.631,0.666 -0.942,1.003 l 4.549,4.198 0.865,-0.913 z m -9.452,12.719 c -0.227,0.399 -0.449,0.801 -0.665,1.208 l 5.462,2.92 c 0.195,-0.365 0.398,-0.733 0.601,-1.096 z m -6.322,16.002 6.018,1.466 c 0.096,-0.402 0.199,-0.801 0.308,-1.202 l -5.984,-1.605 c -0.118,0.446 -0.234,0.893 -0.342,1.341 m -1.821,15.081 0.002,0.631 6.193,-0.039 -0.004,-0.576 0.005,-0.682 -6.19,-0.063 z m 2.143,16.339 5.982,-1.603 c -0.107,-0.403 -0.209,-0.802 -0.308,-1.204 l -6.017,1.47 c 0.112,0.444 0.225,0.893 0.343,1.337 m 5.995,14.655 5.395,-3.04 c -0.206,-0.364 -0.405,-0.729 -0.602,-1.095 l -5.457,2.933 c 0.216,0.4 0.437,0.801 0.664,1.202 m 21.747,22.691 3.258,-5.262 c -0.351,-0.22 -0.702,-0.442 -1.051,-0.669 l -3.377,5.19 c 0.389,0.256 0.775,0.5 1.17,0.741 m 14.407,6.587 1.84,-5.912 c -0.396,-0.122 -0.789,-0.251 -1.18,-0.384 l -1.98,5.868 c 0.437,0.15 0.88,0.293 1.32,0.428 m 15.579,2.808 0.321,-6.184 c -0.412,-0.023 -0.824,-0.05 -1.237,-0.079 l -0.466,6.176 c 0.46,0.033 0.921,0.062 1.382,0.087 m 14.437,-0.88 c 0.449,-0.083 0.897,-0.171 1.346,-0.258 L 9.403,53.43 8.172,53.66 Z M 24.38,55.039 c 0.416,-0.188 0.827,-0.382 1.24,-0.581 l -2.684,-5.582 -1.135,0.535 z m 13.459,-8.321 c 0.361,-0.29 0.719,-0.583 1.071,-0.885 l -3.995,-4.729 c -0.314,0.264 -0.632,0.529 -0.953,0.786 z M 48.837,35.31 c 0.276,-0.369 0.55,-0.743 0.816,-1.119 l -5.051,-3.582 c -0.241,0.337 -0.484,0.669 -0.733,1.001 z M 56.63,21.522 c 0.175,-0.429 0.345,-0.855 0.512,-1.283 l -5.783,-2.226 c -0.149,0.385 -0.302,0.774 -0.456,1.159 z M 60.925,4.859 54.773,4.141 C 54.729,4.556 54.674,4.967 54.62,5.379 l 6.13,0.85 c 0.066,-0.456 0.123,-0.913 0.175,-1.37 m -0.135,-15.828 -6.137,0.819 c 0.054,0.411 0.104,0.822 0.15,1.237 l 6.157,-0.69 c -0.052,-0.452 -0.108,-0.909 -0.17,-1.366 m -4.079,-15.313 -5.734,2.342 c 0.157,0.38 0.308,0.769 0.457,1.151 l 5.786,-2.205 c -0.164,-0.43 -0.336,-0.86 -0.509,-1.288 M 53.147,-41.587 C 74.751,-11.214 67.644,30.921 37.268,52.522 6.899,74.128 -35.236,67.018 -56.841,36.645 -78.446,6.272 -71.336,-35.861 -40.963,-57.465 -10.591,-79.07 31.542,-71.96 53.147,-41.587 m 825.59,58.151 -0.002,-0.002 c -0.002,0.003 -0.002,0.005 -0.002,0.007 z M 852.138,48.751 834.247,38.58 816.243,28.604 798.135,18.812 793.596,16.387 c -1.373,-0.783 -2.669,-1.119 -4.078,-1.078 -5.733,9.714 -11.356,19.501 -16.831,29.345 l 1.828,1.175 -5.183,8.052 -3.366,-2.169 c -0.866,1.603 -1.722,3.211 -2.594,4.808 l -9.97,18.006 -2.544,4.473 -0.635,1.117 -0.316,0.557 -0.166,0.345 c -0.204,0.461 -0.378,0.941 -0.428,1.445 -0.301,2.018 0.749,4.166 2.51,5.113 7.829,4.563 15.634,9.168 23.414,13.81 0.936,-2.86 3.517,-4.565 7.024,-4.565 h 0.05 c 3.854,0.021 8.57,2.241 9.469,5.8 0.369,1.464 0.323,4.197 -3.545,6.581 l 16.522,10.165 4.369,2.721 c 0.397,0.255 0.689,0.417 0.941,0.56 0.279,0.143 0.563,0.285 0.864,0.38 0.59,0.227 1.225,0.32 1.865,0.353 0.546,0.021 1.097,-0.041 1.641,-0.157 l 0.13,-0.223 0.237,0.14 c 0.604,-0.166 1.185,-0.416 1.717,-0.754 0.561,-0.347 1.081,-0.771 1.508,-1.285 0.237,-0.246 0.393,-0.524 0.611,-0.815 l 0.683,-1.093 c 5.104,-8.135 10.177,-16.295 15.224,-24.468 l -3.707,-1.917 4.398,-8.501 4.342,2.246 c 0.48,-0.786 0.968,-1.566 1.447,-2.353 l 10.609,-17.638 2.601,-4.438 c 0.872,-1.471 1.82,-2.935 2.032,-4.652 0.562,-3.372 -1.123,-7.011 -4.131,-8.722 M 323.901,-416.42 c 2.887,-1.991 5.77,-3.881 9.553,-5.779 -3.838,-1.829 -8.379,-1.632 -12.41,-0.563 -4.099,1.078 -7.704,3.171 -10.929,5.607 -3.225,2.453 -5.97,5.397 -8.253,8.656 -2.245,3.287 -4.138,6.856 -4.981,11.002 3.737,-1.9 6.893,-4.009 9.936,-6.153 3.018,-2.154 5.867,-4.362 8.687,-6.49 2.82,-2.11 5.525,-4.334 8.397,-6.28 m -87.702,57.559 c -2.245,3.287 -4.138,6.854 -4.981,11 3.737,-1.901 6.893,-4.004 9.934,-6.154 3.019,-2.153 5.868,-4.361 8.689,-6.489 2.82,-2.11 5.525,-4.332 8.397,-6.278 2.885,-1.993 5.769,-3.883 9.553,-5.781 -3.838,-1.83 -8.379,-1.628 -12.41,-0.559 -4.102,1.076 -7.708,3.167 -10.929,5.603 -3.226,2.455 -5.971,5.397 -8.253,8.658 M 63.38,-263.262 c -2.245,3.285 -4.142,6.856 -4.985,11 3.739,-1.9 6.897,-4.006 9.937,-6.153 3.018,-2.155 5.871,-4.36 8.687,-6.489 2.824,-2.11 5.528,-4.334 8.4,-6.278 2.884,-1.994 5.767,-3.883 9.55,-5.781 -3.837,-1.83 -8.377,-1.631 -12.407,-0.56 -4.102,1.077 -7.707,3.168 -10.93,5.604 -3.225,2.454 -5.973,5.398 -8.252,8.657 m 108.566,-68.041 c -5.96,1.751 -11.392,4.75 -16.264,8.299 -4.862,3.582 -9.205,7.743 -12.984,12.339 -3.746,4.616 -7.072,9.603 -9.278,15.27 5.038,-3.343 9.595,-6.841 14.115,-10.302 4.494,-3.481 8.917,-6.897 13.369,-10.17 4.471,-3.237 8.954,-6.353 13.692,-9.004 4.751,-2.704 9.673,-4.852 15.579,-6.24 -5.653,-2.349 -12.35,-1.959 -18.229,-0.192 m 268.848,127.556 c 5.341,-1.635 10.672,-3.327 15.95,-5.283 -5.619,0.282 -11.186,0.829 -16.742,1.432 -2.782,0.266 -5.542,0.662 -8.313,0.999 -2.765,0.345 -5.534,0.699 -8.284,1.13 l -2.084,0.328 -0.457,2.378 c -0.812,4.243 -1.705,8.473 -2.433,12.724 -0.676,3.689 -1.282,7.389 -1.886,11.089 -11.185,9.282 -22.152,18.82 -32.782,28.747 -5.47,5.169 -10.932,10.348 -16.223,15.73 -5.311,5.356 -10.539,10.807 -15.491,16.579 6.449,-4.028 12.63,-8.374 18.722,-12.818 6.114,-4.421 12.057,-9.04 17.995,-13.671 11.809,-9.328 23.266,-19.067 34.488,-29.079 l 1.267,-1.132 0.176,-1.509 c 0.499,-4.284 0.991,-8.568 1.405,-12.867 0.389,-3.607 0.666,-7.228 0.967,-10.848 1.898,-0.513 3.798,-1.028 5.69,-1.575 2.678,-0.778 5.37,-1.502 8.035,-2.354 m -52.349,-58.53 c 5.344,-1.637 10.674,-3.329 15.95,-5.284 -5.619,0.284 -11.185,0.828 -16.741,1.432 -2.782,0.268 -5.54,0.662 -8.31,1.003 -2.771,0.34 -5.534,0.693 -8.286,1.125 l -2.085,0.328 -0.456,2.382 c -0.813,4.24 -1.705,8.469 -2.435,12.72 -0.677,3.692 -1.279,7.39 -1.886,11.091 -11.182,9.283 -22.148,18.818 -32.781,28.745 -5.47,5.169 -10.932,10.352 -16.223,15.732 -5.307,5.354 -10.537,10.807 -15.492,16.578 6.455,-4.028 12.629,-8.375 18.724,-12.819 6.115,-4.419 12.058,-9.039 17.994,-13.668 11.809,-9.33 23.269,-19.066 34.488,-29.077 l 1.269,-1.132 0.175,-1.512 c 0.496,-4.286 0.993,-8.57 1.403,-12.865 0.39,-3.606 0.667,-7.232 0.969,-10.851 1.897,-0.514 3.798,-1.027 5.689,-1.573 2.679,-0.779 5.37,-1.504 8.034,-2.355 m 420.156,395.381 1.686,0.997 1.987,-3.369 -1.683,-0.997 z m -3.979,6.737 1.687,0.997 1.989,-3.369 -1.687,-0.996 z m -3.979,6.736 1.686,0.993 1.99,-3.369 -1.686,-0.992 z m -3.974,6.737 1.684,0.993 1.99,-3.368 -1.685,-0.994 z m -3.979,6.732 1.682,0.997 1.991,-3.368 -1.683,-0.995 z m -3.977,6.739 1.684,0.994 1.988,-3.368 -1.685,-0.994 z m -3.979,6.735 1.685,0.997 1.989,-3.369 -1.684,-0.997 z m -3.978,6.736 1.685,0.997 1.99,-3.368 -1.686,-0.997 z m -3.978,6.737 1.687,0.992 1.987,-3.368 -1.686,-0.993 z m -3.976,6.736 1.684,0.993 1.99,-3.368 -1.687,-0.993 z m -3.979,6.733 1.684,0.997 1.99,-3.369 -1.685,-0.996 z m -61.011,-36.853 -1.684,-0.996 -1.99,3.368 1.686,0.998 z m 3.978,-6.736 -1.684,-0.994 -1.989,3.368 1.684,0.994 z m 3.979,-6.736 -1.684,-0.995 -1.989,3.368 1.684,0.995 z m 3.977,-6.733 -1.684,-0.997 -1.99,3.366 1.685,0.999 z m 3.979,-6.736 -1.684,-0.997 -1.989,3.366 1.683,0.999 z m 3.979,-6.737 -1.686,-0.994 -1.99,3.368 1.686,0.994 z m 3.977,-6.739 -1.687,-0.993 -1.989,3.369 1.688,0.995 z m 3.976,-6.73 -1.684,-0.999 -1.99,3.368 1.685,0.995 z m 3.979,-6.738 -1.684,-0.995 -1.99,3.366 1.684,0.997 z m 3.976,-6.738 -1.683,-0.994 -1.988,3.37 1.684,0.992 z m 3.978,-6.736 -1.683,-0.992 -1.989,3.368 1.684,0.992 z m 18.94,111.941 1.988,-3.364 -1.684,-0.997 -1.987,3.368 z m -63.96,-35.702 1.267,-2.142 -1.687,-0.997 -1.256,2.127 z m -57.404,-416.811 0.015,0.059 -0.005,-0.059 h -0.01 M 266.263,-85.516 c -5.287,-13.976 -20.081,-42.01 -24.908,-44.565 -2.413,-1.106 -4.228,-1.472 -5.563,-1.497 0.232,1.371 0.725,3.057 1.609,5.146 4.295,10.153 9.989,26.139 16.065,44.226 3.148,-1.724 7.41,-3.331 12.389,-3.331 0.135,0 0.275,0.016 0.408,0.021 m -9.944,11.878 c 0.985,2.983 1.978,6.002 2.97,9.046 3.585,-3.524 7.241,-8.273 8.44,-11.953 -4.855,-0.619 -8.955,1.313 -11.41,2.907 m -296.566,-40.812 1.593,-1.132 -2.301,-3.234 -1.593,1.132 z m 5.027,3.697 -1.134,-1.596 -1.594,1.132 1.134,1.596 z m 93.529,251.717 -2.302,-3.237 -1.592,1.133 2.299,3.236 z m 2.703,3.799 -0.405,-0.566 -1.592,1.132 0.402,0.568 z m 27.59,-83.799 -1.136,-1.595 -1.593,1.132 1.137,1.595 z m 4.602,6.467 -2.301,-3.234 -1.592,1.132 2.3,3.234 z m 4.602,6.47 -2.301,-3.233 -1.593,1.132 2.301,3.235 z m 4.601,6.469 -2.301,-3.235 -1.592,1.133 2.3,3.236 z m 4.598,6.469 -2.296,-3.233 -1.593,1.131 2.299,3.236 z m 4.602,6.469 -2.3,-3.236 -1.591,1.134 2.301,3.235 z m 4.602,6.468 -2.301,-3.233 -1.591,1.132 2.301,3.235 z m 2.704,3.8 -0.403,-0.566 -1.591,1.133 0.401,0.565 z m -69.101,28.816 2.301,3.233 1.593,-1.132 -2.301,-3.233 z m -4.599,-6.469 2.299,3.231 1.593,-1.13 -2.301,-3.235 z m -4.602,-6.471 2.301,3.236 1.591,-1.132 -2.297,-3.234 z m -4.602,-6.467 2.302,3.232 1.594,-1.13 -2.3,-3.235 z m -5.308,-10.836 -1.137,-1.594 -1.591,1.134 1.133,1.59 z m 3.007,7.601 1.596,-1.132 -2.302,-3.235 -1.595,1.132 z M 8.618,89.025 20.364,80.669 c -5.847,1.562 -11.8,2.474 -17.756,2.774 1.147,3.923 12.162,16.103 12.162,16.103 0,0 -1.29,1.185 -6.906,4.913 -0.968,-1.362 -24.281,-20.841 -35.678,-24.899 -0.316,-0.112 -0.617,-0.211 -0.912,-0.299 -0.147,-0.043 -0.3,-0.096 -0.442,-0.133 l 0.079,0.009 c -0.282,-0.096 -0.565,-0.198 -0.849,-0.295 l 40.051,56.989 c 4.22,-3.225 11.725,-8.681 21.425,-14.585 z m -74.173,-239.053 2.301,3.232 1.593,-1.134 -2.301,-3.232 z m -2.704,-3.803 0.404,0.567 1.592,-1.134 -0.401,-0.567 z m -16.885,111.036 c 1.892,1.866 3.665,3.48 5.046,4.56 1.988,-4.351 4.328,-8.56 7.046,-12.568 z m -41.015,-69.851 0.402,0.568 1.591,-1.134 -0.4,-0.565 z m 6.596,5.903 -2.302,-3.235 -1.595,1.133 2.301,3.234 z m 4.601,6.469 -2.301,-3.234 -1.595,1.134 2.301,3.233 z m 4.602,6.468 -2.301,-3.235 -1.591,1.134 2.301,3.235 z m 4.601,6.471 -2.301,-3.235 -1.59,1.134 2.3,3.233 z m 4.603,6.469 -2.302,-3.234 -1.595,1.13 2.301,3.236 z m 4.599,6.469 -2.298,-3.236 -1.595,1.134 2.301,3.233 z m 3.435,4.826 -1.134,-1.591 -1.593,1.13 1.134,1.594 z m 7.978,26.776 -28.188,-39.631 -19.602,14.715 42.813,60.914 c -3.152,-13.354 -9.04,-35.301 -16.379,-48.589 4.517,-3.213 8.292,-3.9 8.292,-3.9 -1.099,1.024 6.672,10.186 13.064,16.491 m 28.084,-98.666 -2.3,-3.23 -1.595,1.13 2.301,3.234 z m 4.603,6.471 -2.302,-3.236 -1.593,1.134 2.302,3.234 z m 4.602,6.469 -2.301,-3.233 -1.593,1.131 2.301,3.233 z m 4.599,6.468 -2.301,-3.232 -1.592,1.131 2.3,3.233 z m -1.393,59.407 C -77.882,-39.008 -85.661,7.098 -62.022,40.33 -38.382,73.564 7.722,81.342 40.954,57.703 74.19,34.065 81.968,-12.04 58.329,-45.272 34.688,-78.505 -11.417,-86.284 -44.649,-62.646 m 395.763,-314.76 c -0.169,-0.209 -0.341,-0.45 -0.501,-0.602 -4.512,0.145 -24.024,4.278 -33.984,14.065 -3.866,3.804 -5.69,7.838 -5.565,12.299 4.477,0.256 8.656,0.564 12.59,0.244 4.802,-0.345 8.947,-1.707 12.388,-4.163 3.466,-2.437 6.397,-6.011 8.95,-10.235 2.172,-3.545 4.054,-7.483 6.122,-11.608 m -10.001,29.092 c -5.229,3.764 -12.047,4.913 -17.83,3.837 -4.02,-0.722 -7.683,-2.222 -10.969,-4.251 4.407,9.339 14.291,25.443 25.433,25.667 19.497,0.399 23.359,-14.463 23.958,-17.439 1.254,-6.279 -4.511,-25.696 -8.855,-34.086 0.137,3.858 -0.329,7.746 -1.483,11.567 -1.678,5.48 -4.975,11.01 -10.254,14.705 m -36.64,34.255 c -4.839,1.121 -22.325,9.256 -33.102,21.461 -3.567,4.035 -5.852,7.954 -6.892,11.716 4.733,-0.553 9.202,-0.982 13.417,-1.908 5.1,-1.146 9.725,-2.937 13.411,-5.8 3.692,-2.846 6.583,-6.68 8.73,-11.326 1.973,-4.205 3.258,-8.979 4.436,-14.143 m 2.203,16.221 c -1.206,6.135 -4.683,12.27 -10.03,16.298 -5.316,4.102 -11.978,5.729 -18.092,5.65 -5.111,-0.127 -9.985,-1.297 -14.463,-3.283 -0.192,1.066 -0.304,2.12 -0.279,3.156 4.237,7.973 16.476,26.1 28.973,26.347 0.112,0.004 0.227,0.004 0.345,0.004 15.936,0 29.545,-22.143 30.971,-29.27 1.209,-6.062 -12.439,-29.841 -18.449,-34.675 1.715,4.929 2.098,10.372 1.024,15.773 m -71.36,-3.943 c 11.872,16.266 22.181,33.21 27.628,48.387 5.657,4.746 11.156,7.273 16.332,8.311 -13.857,-8.48 -23.276,-26.751 -23.783,-27.745 l -0.396,-0.783 -0.065,-0.879 c -0.706,-9.12 3.686,-18.363 13.058,-27.474 12.233,-11.89 31.101,-21.082 37.404,-21.082 0.195,0 0.38,0.009 0.553,0.027 2.184,0.233 5.477,1.568 11.608,9.906 3.56,4.841 9.237,14.019 12.589,22.465 0.413,-3.612 0.054,-6.666 -1.188,-8.757 -1.04,-1.759 -2.326,-3.971 -3.826,-6.554 -2.533,-4.367 -5.807,-9.999 -9.633,-16.385 -4.288,-5.139 -21.557,-31.322 -33.67,-50.719 -0.098,-0.155 -0.185,-0.3 -0.285,-0.454 -13.704,-18.088 -28.553,-34.108 -42.197,-40.982 -14.668,-7.393 -29.243,-0.797 -38.891,6.037 -16.31,11.552 -27.406,29.798 -28.878,36.796 23.784,15.491 46.205,43.213 63.64,69.885 m -0.315,65.86 c -1.242,5.788 -5.466,11.088 -10.554,14.124 -5.108,3.116 -10.786,4.353 -16.202,4.55 -4.649,0.126 -9.199,-0.478 -13.581,-1.847 -0.041,0.53 -0.072,1.058 -0.058,1.583 4.253,7.972 16.516,26.105 28.973,26.353 0.133,0.002 0.266,0.004 0.397,0.004 15.348,0 26.82,-17.784 28.361,-25.479 1.287,-6.435 -13.087,-32.711 -18.503,-36.164 -4.021,0.541 -21.471,7.736 -31.901,19.16 -4.021,4.408 -6.37,8.779 -7.078,13.05 4.27,-1.306 8.39,-2.319 12.304,-3.507 4.654,-1.384 9.017,-2.995 12.653,-5.235 3.605,-2.26 6.604,-5.036 8.66,-8.998 2.149,-3.913 3.435,-8.689 4.855,-13.935 2.231,4.916 3.02,10.595 1.674,16.341 m -108.998,12.742 c -3.288,-0.033 -17.756,3.007 -26.441,11.447 -2.971,2.891 -4.824,6.005 -5.639,9.412 3.171,-0.694 6.142,-1.158 8.974,-1.816 3.708,-0.857 7.111,-1.869 10.062,-3.324 2.964,-1.443 5.482,-3.309 7.606,-6.004 2.085,-2.55 3.761,-5.821 5.438,-9.715 m 0.703,12.982 c -0.782,2.315 -2.203,4.408 -3.848,6.299 -0.905,0.84 -1.799,1.75 -2.807,2.462 -1.045,0.655 -2.05,1.437 -3.169,1.903 -4.415,2.159 -9.208,2.728 -13.652,2.323 -3.418,-0.361 -6.678,-1.312 -9.694,-2.828 -0.083,0.833 -0.131,1.674 -0.099,2.539 3.891,7.881 15.408,25.954 27.862,26.203 15.743,0.297 25.324,-10.665 26.826,-18.184 1.154,-5.765 -15.378,-29.794 -21.558,-33.404 1.595,3.871 1.691,8.401 0.139,12.687 m -25.413,39.788 c 0.587,0.04 1.228,0.133 1.844,0.2 -10.855,-9.2 -17.654,-23.398 -18.068,-24.274 l -0.342,-0.734 -0.062,-0.809 c -0.64,-8.25 2.38,-15.876 8.732,-22.05 10.053,-9.773 26.458,-13.937 32.774,-13.937 0.4,0 0.762,0.015 1.08,0.05 5.05,0.534 12.071,8.76 17.073,15.563 2.485,3.379 6.802,9.642 9.696,15.929 0.922,-11.857 -4.057,-26.109 -11.504,-40.263 -1.736,-2.288 -3.496,-4.617 -5.286,-7.028 -10.829,-14.58 -23.623,-33.053 -32.748,-47.164 -4.197,-4.927 -7.374,-8.423 -8.745,-9.91 -4.95,-1.582 -28.223,-8.099 -44.882,3.354 -11.687,8.031 -17.881,23.408 -18.421,45.719 26.922,40.765 60.671,84.698 68.859,85.354 m 6.989,-195.36 c -13.911,15.873 -7.415,46.69 -7.062,48.305 0.822,2.063 4.384,8.087 9.777,16.479 10.416,12.156 27.033,33.083 38.673,55.065 21.998,28.872 46.054,56.126 59.624,59.401 0.42,0.099 0.829,0.156 1.242,0.236 -14.111,-8.348 -23.734,-27.029 -24.245,-28.034 l -0.398,-0.786 -0.067,-0.875 c -0.689,-8.919 3.32,-17.681 11.924,-26.045 11.451,-11.131 30.008,-19.648 36.615,-19.648 0.236,0 0.455,0.011 0.656,0.031 2.156,0.229 5.064,1.423 10.303,8.548 4.749,6.46 12.501,20.01 15.036,30.158 1.135,-3.787 1.504,-7.174 1.051,-9.757 -0.539,-3.051 -2.504,-8.368 -5.623,-15.195 l -0.422,-0.368 -0.382,-1.113 c -0.145,-0.413 -0.322,-0.841 -0.471,-1.258 -5.594,-11.789 -14.212,-27.374 -24.749,-43.52 -23.35,-32.332 -53.896,-62.76 -62.773,-69.858 -1.231,-0.82 -2.467,-1.598 -3.703,-2.337 l -0.245,-0.131 -0.002,-0.018 c -7.999,-4.755 -15.994,-7.822 -23.769,-8.556 -14.003,-1.322 -24.436,1.797 -30.99,9.276 m 231.381,-83.603 c -15.163,-12.261 -31.457,-11.002 -42.459,-7.783 -18.839,5.51 -33.052,19.603 -35.963,27.513 0.378,5.574 13.168,27.802 26.998,50.095 5.186,6.799 10.191,13.874 14.917,20.898 1.246,-4.212 3.713,-8.143 7.413,-11.742 11.791,-11.465 33.547,-16.453 40.529,-16.453 0.392,0 0.739,0.014 1.032,0.047 2.203,0.231 4.205,1.616 6.123,4.225 3.939,5.357 8.485,17.628 10.832,28.335 0.108,-16.199 -1.591,-72.634 -29.422,-95.135 m 25.867,12.091 c -1.476,0.485 -2.774,0.907 -3.991,1.295 18.575,34.174 16.417,84.042 16.293,86.617 l -0.011,0.068 69.475,-72.867 c -2.686,-2.432 -8.172,-7.168 -19.363,-16.26 -17.003,-13.816 -46.537,-4.083 -62.403,1.147 m 137.428,239.415 c -4.013,-0.299 -7.937,-0.924 -11.794,-1.84 -3.854,-0.916 -7.64,-2.104 -11.352,-3.609 -3.73,-1.499 -7.298,-3.404 -10.917,-5.715 4.26,-1.296 8.41,-1.211 12.441,-1.049 3.663,0.225 7.249,0.781 10.781,1.556 l 117.511,-124.509 c -7.225,-19.945 -23.046,-33.424 -36.121,-39.571 -10.626,-5.002 -21.077,-6.201 -28.167,-3.312 l -109.044,99.699 c 2.695,0.771 5.365,1.643 7.978,2.741 3.705,1.593 7.345,3.456 10.765,6.191 -4.296,0.848 -8.375,0.839 -12.392,0.573 -4.007,-0.299 -7.936,-0.924 -11.789,-1.84 -3.857,-0.916 -7.641,-2.103 -11.354,-3.609 -3.73,-1.499 -7.298,-3.403 -10.917,-5.713 4.264,-1.298 8.408,-1.213 12.441,-1.051 1.545,0.096 3.067,0.289 4.589,0.487 l 112.452,-102.821 c -5.314,-20.54 -27.783,-39.726 -46.454,-45.187 -15.595,-4.561 -29.534,3.625 -33.936,6.63 l -0.028,0.32 -1.464,0.826 -90.561,94.983 c -4.372,5.784 -10.014,10.87 -17.091,12.938 -5.242,1.53 -10.683,1.279 -16.268,-0.715 0.203,0.352 0.418,0.723 0.616,1.062 1.485,2.554 2.754,4.743 3.786,6.483 7.783,13.135 -3.016,40.634 -22.218,56.586 -14.751,12.255 -30.886,14.88 -45.838,7.973 0.781,2.175 1.296,3.923 1.508,5.127 2.102,11.899 -6.153,29.722 -19.624,42.382 -13.311,12.507 -28.679,17.454 -43.277,13.932 -10.711,-2.586 -26.209,-15.905 -46.201,-39.607 2.176,8.922 2.678,17.458 0.635,25.031 -10.445,38.636 -37.437,34.412 -53.565,31.889 -2.724,-0.426 -5.299,-0.829 -7.428,-0.98 -9.434,-0.673 -28.742,-23.611 -46.066,-46.951 l -97.132,72.946 31.224,43.9 -7.287,4.824 c 4.309,-0.851 8.654,-1.368 12.999,-1.555 l -17.852,-25.1 6.018,-4.283 c 29.97,32.014 61.356,36.001 65.505,45.221 l -0.055,-0.012 c 3.847,2.733 7.498,5.81 10.908,9.22 l 9.623,-6.84 0.96,1.35 1.661,-1.18 9.627,13.531 -1.661,1.18 0.962,1.354 -8.786,6.247 c 10.305,16.623 14.282,35.564 12.436,53.859 1.705,9.484 5.405,25.899 11.913,36.005 -2.599,2.529 -6.375,4.531 -6.375,4.531 L 77.679,30.348 c -2.213,5.379 -4.967,10.553 -8.274,15.437 l 11.333,-8.06 41.28,58.033 c 22.404,1.939 49.986,7.796 76.958,13.531 33.749,7.173 68.645,14.582 83.264,11.268 28.616,-6.504 71.979,-14.494 99.596,-18.833 C 348.244,81.969 307.629,56.75 284.329,42.155 l -1.416,-0.888 -0.478,-1.599 c -0.37,-1.246 -37.242,-124.975 -53.182,-162.652 -2.002,-4.729 -2.638,-8.556 -2.426,-11.66 l -1.495,-1.006 c 0.077,-0.113 0.756,-1.038 2.026,-2.041 0.813,-2.806 2.391,-4.843 4.129,-6.292 -0.092,0.004 -0.178,0 -0.269,0.004 0,0 0.461,-0.316 1.344,-0.806 1.375,-0.949 2.987,-1.689 4.8,-2.245 9.148,-3.643 28.361,-8.242 56.612,0.388 68.566,20.937 98.98,84.421 118.548,93.451 28.359,13.091 81.626,-33.729 85.498,-37.602 2.632,-2.635 55.284,-52.665 89.17,-84.99 l 57.884,-69.792 c 0.596,-0.054 1.302,0.331 1.952,0.224 1.709,-0.282 3.57,0.056 5.277,-0.438 2.407,-0.71 4.766,-1.615 7.038,-2.741 2.249,-1.155 4.375,-2.558 6.329,-4.242 1.923,-1.713 3.543,-3.782 4.881,-6.126 -0.64,2.595 -1.679,5.185 -3.189,7.55 -1.532,2.33 -3.388,4.496 -5.471,6.436 -1.923,1.74 -4.019,3.309 -6.213,4.736 1.96,0.995 3.97,2.015 6.024,3.057 14.084,5.801 27.019,11.881 38.816,18.279 0.198,-2.355 0.509,-5.142 0.895,-8.533 2.09,-18.411 5.582,-49.179 -4.809,-73.181 -13.685,-22.59 -51.324,-28.574 -80.583,-24.562 l -1.953,0.267 -112.431,119.127 c 0.982,0.362 1.974,0.683 2.944,1.092 3.707,1.593 7.346,3.456 10.766,6.191 -4.297,0.847 -8.375,0.838 -12.389,0.573 m 325.697,155.22 -1.684,-0.993 -1.988,3.368 1.685,0.994 z m 3.979,-6.737 -1.686,-0.992 -1.99,3.368 1.687,0.993 z m 3.978,-6.736 -1.685,-0.992 -1.99,3.368 1.686,0.992 z m 3.976,-6.736 -1.685,-0.994 -1.987,3.373 1.687,0.989 z m 14.841,123.252 c 0.469,-0.914 0.86,-1.865 0.974,-2.901 0.526,-3.437 -1.235,-7.077 -4.265,-8.745 l -17.755,-10.408 -17.64,-10.604 -17.535,-10.786 -4.371,-2.72 c -1.042,-0.71 -2.375,-1.288 -3.761,-1.572 1.04,-1.753 2.048,-3.526 3.099,-5.268 4.014,-6.656 8.098,-13.262 12.364,-19.709 2.137,-3.217 4.314,-6.407 6.589,-9.466 1.144,-1.514 2.301,-3.028 3.51,-4.412 1.169,-1.379 2.523,-2.778 3.539,-3.386 2.511,-1.433 6.439,-1.807 10.056,-1.763 3.704,0.065 7.466,0.572 11.159,1.385 7.385,1.646 14.593,4.49 20.967,8.656 6.346,4.145 11.874,9.823 14.865,16.898 2.114,4.919 2.772,10.37 2.311,15.769 l -0.495,0.837 0.407,0.241 c -0.157,1.383 -0.413,2.754 -0.712,4.119 l -1.684,-0.996 -1.989,3.369 1.686,0.997 1.985,-3.363 c -0.13,0.588 -0.247,1.178 -0.403,1.759 0.613,-1.849 1.101,-3.759 1.441,-5.698 l 0.956,0.565 1.989,-3.369 -1.686,-0.996 -0.958,1.624 c 0.612,-5.128 0.204,-10.396 -1.588,-15.347 -2.683,-7.558 -8.163,-13.896 -14.572,-18.628 -6.443,-4.758 -13.806,-8.177 -21.528,-10.373 -3.869,-1.091 -7.844,-1.872 -11.937,-2.181 -1.974,-0.148 -3.985,-0.157 -6.032,0.012 l -1.421,-0.839 -0.649,1.096 c -1.543,0.254 -3.116,0.659 -4.732,1.456 -2.395,1.313 -3.735,2.852 -5.186,4.331 -1.427,1.497 -2.709,3.031 -3.986,4.572 -0.897,1.102 -1.756,2.221 -2.621,3.339 l 26.943,-45.124 -42.243,-26.659 c -0.922,2.506 -1.925,4.959 -2.982,7.374 -3.746,8.452 -8.093,16.485 -12.681,24.355 -4.601,7.858 -9.473,15.529 -14.571,23.038 -2.555,3.751 -5.162,7.459 -7.866,11.102 -1.355,1.821 -2.732,3.622 -4.153,5.391 -0.717,0.88 -1.44,1.752 -2.196,2.602 -0.783,0.793 -1.474,1.79 -2.527,2.23 0.999,-0.517 1.603,-1.559 2.313,-2.407 0.679,-0.901 1.328,-1.825 1.965,-2.758 1.267,-1.864 2.488,-3.764 3.684,-5.682 2.386,-3.829 4.675,-7.724 6.901,-11.647 4.447,-7.851 8.647,-15.839 12.545,-23.945 3.881,-8.108 7.494,-16.344 10.412,-24.71 1.439,-4.179 2.718,-8.403 3.557,-12.581 0.414,-2.082 0.711,-4.159 0.796,-6.126 0.083,-1.591 -0.258,-3.94 -0.634,-5.474 -10.856,-37.647 -37.148,-68.159 -81.352,-93.754 -4.259,-1.383 -12.502,-5.511 -29.993,-14.272 -5.505,-2.756 -10.983,-5.521 -15.716,-7.914 -2.46,-1.012 -8.179,-2.544 -12.026,-3.757 l -105.729,127.48 c 3.517,-0.7 7.054,-1.261 10.594,-1.657 6.421,-0.77 12.903,-0.857 19.255,-0.4 6.369,0.319 12.603,1.748 18.592,3.338 -6.248,-0.134 -12.391,-0.062 -18.405,1.085 -5.999,1.002 -11.854,2.503 -17.475,4.605 -5.628,2.044 -11.06,4.507 -16.235,7.364 -0.52,0.291 -1.024,0.594 -1.539,0.891 1.198,0.135 2.416,0.223 3.605,0.378 6.357,0.81 12.649,1.834 18.912,2.997 12.52,2.325 24.913,5.249 37.112,8.852 12.177,3.643 24.219,7.939 35.542,13.812 5.633,2.951 11.12,6.309 15.902,10.55 4.732,4.201 8.836,9.56 10.045,15.828 -1.585,-6.189 -5.898,-11.14 -10.755,-14.982 -4.911,-3.866 -10.471,-6.837 -16.162,-9.411 -11.433,-5.108 -23.521,-8.638 -35.708,-11.521 -12.209,-2.845 -24.581,-5.009 -37,-6.573 -6.209,-0.783 -12.435,-1.422 -18.64,-1.847 -3.102,-0.223 -6.198,-0.359 -9.26,-0.429 -1.511,-0.008 -3.062,-0.048 -4.504,0.031 -0.289,0.009 -0.538,0.039 -0.816,0.05 -0.222,0.177 -4.843,2.107 -8.678,3.718 -6.678,4.784 -17.131,13.745 -26.685,21.941 -20.227,17.353 -43.152,37.023 -56.358,41.427 -1.296,0.432 -2.614,0.677 -3.956,0.781 -0.361,2.762 -0.831,5.478 -1.401,8.161 -1.288,5.959 -2.981,11.788 -5.154,17.434 -2.157,5.644 -4.797,11.11 -8.018,16.185 -3.215,5.078 -7.088,9.74 -11.623,13.556 4.026,-4.356 7.201,-9.351 9.688,-14.628 2.487,-5.276 4.352,-10.81 5.733,-16.442 1.397,-5.628 2.307,-11.368 2.812,-17.098 0.232,-2.719 0.359,-5.442 0.361,-8.121 -14.394,-4.507 -31.486,-23.425 -53.301,-47.58 -14.604,-16.173 -31.158,-34.504 -48.605,-49.856 -15.97,-14.057 -58.857,-29.426 -75.9,-26.333 0.893,0.306 1.821,0.668 2.797,1.115 10.226,4.678 30.738,49.273 31.852,57.63 1.188,8.915 -8.012,19.56 -14.64,25.032 12.982,40.278 25.505,82.019 28.189,91.005 52.357,32.763 137.042,84.226 146.543,86.012 10.996,-0.142 122.756,-13.895 167.288,-20.596 l 0.894,-0.136 0.694,0.182 c 1.402,-0.217 2.806,-0.457 4.176,-0.74 3.842,-0.742 7.636,-1.761 11.395,-2.911 7.497,-2.374 14.729,-5.645 21.454,-9.8 1.637,-1.099 3.403,-2.043 4.952,-3.275 l 4.704,-3.646 c 1.539,-1.255 2.9,-2.704 4.369,-4.056 l 2.166,-2.068 1.929,-2.287 c 5.486,-5.885 9.32,-13.058 12.863,-20.342 -2.853,7.546 -6.074,15.188 -11.131,21.717 l -1.773,2.534 -2.028,2.329 c -1.38,1.524 -2.669,3.163 -4.144,4.61 l -4.546,4.239 c -1.508,1.435 -3.239,2.585 -4.857,3.893 -6.643,4.993 -13.957,9.142 -21.665,12.377 -1.508,0.619 -3.035,1.193 -4.568,1.762 25.163,9.56 57.97,28.445 83.957,44.57 l 39.169,-65.602 c 0.341,3.849 2.526,7.533 5.956,9.481 11.907,6.812 23.84,13.581 35.889,20.154 l 18.108,9.791 4.544,2.426 c 0.336,0.187 0.803,0.419 1.319,0.658 0.5,0.214 1.01,0.41 1.536,0.542 1.045,0.299 2.138,0.39 3.207,0.362 1.39,-0.052 2.753,-0.402 4.012,-0.968 z M 884.704,6.458 886.69,3.09 885.007,2.098 883.02,5.466 Z m 5.966,-10.101 -1.685,-0.997 -1.989,3.369 1.685,0.995 z m 3.978,-6.736 -1.683,-0.997 -1.99,3.368 1.684,0.993 z m 3.977,-6.736 -1.686,-0.997 -1.985,3.368 1.684,0.992 z m 3.979,-6.738 -1.686,-0.997 -1.989,3.37 1.685,0.996 z m 3.979,-6.736 -1.687,-0.993 -1.989,3.369 1.689,0.992 z m -35.801,60.625 -1.684,-0.996 -1.99,3.368 1.684,0.994 z m 3.977,-6.738 -1.687,-0.995 -1.985,3.368 1.684,0.995 z m -31.877,-93.879 -1.989,3.364 1.684,0.997 1.989,-3.368 z m -72.026,295.68 -86.882,-52.566 7.98,-13.371 c -27.945,-17.174 -64.266,-37.76 -87.58,-44.389 -48.155,7.165 -156.956,20.459 -167.551,20.459 -2.305,0 -6.573,-0.001 -43.742,-21.373 -25.809,3.731 -76.456,12.912 -107.809,20.038 -17.564,3.988 -52.329,-3.401 -89.141,-11.226 -24.067,-5.116 -48.93,-10.399 -69.51,-12.715 l -72.41,51.505 -18.8,-26.432 c -12.318,7.756 -20.253,14.239 -20.33,14.302 L 7.366,155.715 -49.359,75 C -59.832,68.587 -68.755,60.249 -75.9,50.205 -83.248,39.875 -88.267,28.371 -90.823,15.998 l -60.925,-86.686 26.614,-19.986 -16.322,-22.951 79.996,-56.904 14.855,20.883 89.28,-67.045 c -9.76,-13.643 -18.11,-26.143 -22.423,-32.695 l -1.562,-2.375 0.037,-2.842 c 0.387,-27.737 8.589,-47.302 24.38,-58.153 8.739,-6.01 19.421,-9.056 31.742,-9.056 3.9,0 7.881,0.305 11.899,0.908 -1.655,-11.983 -3.071,-37.52 11.224,-53.859 9.584,-10.945 24.022,-15.649 42.584,-13.903 6.728,0.634 13.712,2.58 20.824,5.794 5.374,-11.539 16.838,-26.533 31.265,-36.752 11.111,-7.87 22.266,-11.859 33.164,-11.859 6.858,0 13.515,1.602 19.793,4.767 0.854,0.432 1.721,0.896 2.594,1.39 -1.122,-4.127 -0.731,-6.272 -0.058,-8.292 4.253,-12.766 22.332,-29.971 45.224,-36.667 6.274,-1.836 12.547,-2.767 18.649,-2.767 13.355,0 25.553,4.388 36.254,13.041 3.688,2.983 7.143,6.544 10.306,10.615 0.85,-0.277 1.746,-0.574 2.677,-0.879 10.796,-3.557 27.11,-8.936 43.41,-8.936 12.866,0 23.601,3.42 31.9,10.165 8.966,7.283 14.486,11.872 18.07,15.033 8.068,-4.479 23.437,-10.653 40.827,-5.563 19.817,5.796 44.642,24.556 53.911,48.668 9.085,-1.016 19.558,1.032 29.966,5.925 19.469,9.155 34.777,25.6 42.496,45.475 30.565,-2.463 70.172,4.474 86.671,32.189 l 0.523,1.021 c 12.005,27.405 8.236,60.617 5.985,80.468 -0.314,2.752 -0.741,6.504 -0.935,9.151 43.296,25.836 70.425,57.035 82.761,95.2 l 0.336,-0.084 1.095,4.748 1.391,4.888 -0.698,0.201 c 0.094,1.805 0.035,3.645 -0.185,5.421 -0.056,0.434 -0.121,0.872 -0.191,1.321 l 37.109,23.421 3.3,-5.529 83.508,51.358 z"
             style="fill:#000000;fill-opacity:1;fill-rule:nonzero;stroke:none"
             id="path343" />
        </g>
      </g>
    </g>
  </g>
</svg>
